<?xml version="1.0" standalone="no"?>
<!DOCTYPE svg PUBLIC "-//W3C//DTD SVG 20010904//EN"
 "http://www.w3.org/TR/2001/REC-SVG-20010904/DTD/svg10.dtd">
<svg version="1.0" xmlns="http://www.w3.org/2000/svg"
 width="130.000000pt" height="130.000000pt" viewBox="0 0 130.000000 130.000000"
 preserveAspectRatio="xMidYMid meet">
<metadata>
Created by potrace 1.14, written by Peter Selinger 2001-2017
</metadata>
<g transform="translate(0.000000,130.000000) scale(0.100000,-0.100000)"
fill="#000000" stroke="none">
<path d="M385 1193 c-148 -52 -276 -101 -283 -107 -11 -11 -11 -15 0 -23 23
-18 551 -233 573 -233 12 0 144 51 295 114 218 90 275 117 275 131 0 15 -51
37 -275 116 -151 54 -284 98 -295 98 -11 0 -141 -43 -290 -96z m374 -83 c12
-6 21 -19 21 -30 0 -31 -39 -50 -102 -50 -65 0 -106 13 -114 35 -8 19 20 52
50 59 33 7 122 -1 145 -14z"/>
<path d="M50 662 c0 -247 3 -332 13 -345 15 -19 550 -307 571 -307 14 0 16 41
16 358 0 271 -3 362 -13 375 -12 17 -546 247 -573 247 -12 0 -14 -51 -14 -328z
m484 67 c76 -60 74 -179 -4 -179 -39 0 -76 33 -95 84 -34 89 29 150 99 95z
m-159 -143 c36 -38 49 -84 35 -120 -31 -83 -138 -30 -148 74 -5 59 8 80 51 80
21 0 39 -10 62 -34z m-164 -117 c50 -53 52 -143 3 -155 -35 -9 -70 9 -94 48
-22 37 -27 107 -8 126 23 23 68 14 99 -19z"/>
<path d="M995 875 c-148 -63 -276 -122 -282 -132 -10 -13 -13 -103 -13 -375 0
-322 2 -358 16 -358 22 0 556 287 572 308 9 12 12 91 10 341 -3 281 -5 326
-18 328 -8 1 -136 -49 -285 -112z m-14 -201 c16 -19 14 -76 -4 -110 -20 -38
-46 -61 -79 -69 -35 -9 -68 23 -68 65 0 92 104 170 151 114z m195 -149 c42
-64 -32 -188 -101 -171 -56 14 -53 110 5 168 36 36 74 37 96 3z"/>
</g>
</svg>
